<?xml version="1.0" encoding="UTF-8" standalone="no"?>
<!DOCTYPE svg PUBLIC "-//W3C//DTD SVG 1.1//EN" "http://www.w3.org/Graphics/SVG/1.1/DTD/svg11.dtd">
<svg width="100%" height="100%" viewBox="0 0 395 231" version="1.1" xmlns="http://www.w3.org/2000/svg" xmlns:xlink="http://www.w3.org/1999/xlink" xml:space="preserve" xmlns:serif="http://www.serif.com/" style="fill-rule:evenodd;clip-rule:evenodd;stroke-linecap:square;stroke-linejoin:round;stroke-miterlimit:1.5;">
    <g transform="matrix(1,0,0,1,-1335.45,-132.274)">
        <g id="Artboard2" transform="matrix(0.995115,0,0,0.582979,2697.52,1114.91)">
            <rect x="-1368.76" y="-1685.54" width="395.945" height="395.945" style="fill:none;"/>
            <g transform="matrix(0.32914,0,0,0.561825,-3685.48,-6696.98)">
                <g transform="matrix(1,0,0,1,0.553131,-263.648)">
                    <path d="M7901.08,9722.74L7901.08,9775.59C7901.08,9786.38 7895.77,9793.27 7885.14,9796.29C7874.52,9799.3 7858.9,9800.81 7838.28,9800.81C7827.81,9800.81 7817.59,9799.38 7807.59,9796.53C7797.6,9793.67 7789.36,9788.76 7782.86,9781.78C7776.35,9774.8 7773.1,9765.44 7773.1,9753.71C7773.1,9739.12 7778.49,9728.02 7789.28,9720.41C7800.06,9712.79 7815.44,9708.99 7835.43,9708.99C7851.92,9708.99 7867.06,9710.97 7880.86,9714.93C7887.08,9716.72 7896.18,9720.66 7901.08,9722.74ZM7661.77,9502.93C7672.45,9507.8 7683.88,9512.45 7696.03,9516.69L7696.03,9783.2C7696.03,9792.09 7692.94,9799.62 7686.75,9805.8C7680.57,9811.99 7672.56,9816.9 7662.73,9820.55C7652.89,9824.2 7642.43,9826.9 7631.33,9828.64C7620.23,9830.38 7609.76,9831.26 7599.93,9831.26C7588.51,9831.26 7576.45,9829.59 7563.77,9826.26C7551.08,9822.93 7539.11,9816.75 7527.85,9807.71C7516.59,9798.67 7507.39,9785.66 7500.26,9768.69C7493.12,9751.73 7489.55,9729.6 7489.55,9702.33C7489.55,9665.53 7498.51,9636.43 7516.43,9615.02C7534.35,9593.62 7561.55,9582.91 7598.02,9582.91C7605,9582.91 7613.25,9583.86 7622.76,9585.77C7632.28,9587.67 7641.63,9590.05 7650.83,9592.9C7654.77,9594.12 7658.42,9595.38 7661.77,9596.66L7661.77,9502.93ZM7412.95,9824.12L7412.95,9586.72L7447.21,9586.72L7447.21,9824.12L7412.95,9824.12ZM8022.4,9485.46L8022.4,9602.27C8021.12,9602.94 8044.73,9591.93 8056.65,9588.38C8069.97,9584.42 8082.5,9582.43 8094.24,9582.43C8113.9,9582.43 8130.48,9586.08 8143.95,9593.38C8157.44,9600.67 8167.74,9611.69 8174.88,9626.44C8182.02,9641.19 8185.58,9660.14 8185.58,9683.3L8185.58,9824.12L8151.33,9824.12L8151.33,9683.3C8151.33,9661.09 8146.25,9643.97 8136.11,9631.91C8125.95,9619.86 8110.73,9613.84 8090.43,9613.84C8079.33,9613.84 8068.15,9615.42 8056.89,9618.59C8045.63,9621.76 8034.13,9626.52 8022.4,9632.87L8022.4,9824.12L7988.14,9824.12L7988.14,9501.91C7999.41,9497.01 8010.83,9491.54 8022.4,9485.46ZM7322.08,9773.98L7322.08,9506.79L7356.34,9506.79L7356.34,9824.12L7317.8,9824.12L7127.97,9556.52L7127.97,9824.12L7093.72,9824.12L7093.72,9506.79L7132.73,9506.79L7322.08,9773.98ZM7600.4,9799.86C7616.9,9799.86 7631.25,9797.95 7643.46,9794.15C7655.67,9790.34 7661.77,9785.58 7661.77,9779.88L7661.77,9630.96C7651.94,9625.25 7641.4,9621.05 7630.14,9618.35C7618.88,9615.66 7608.17,9614.31 7598.02,9614.31C7580.9,9614.31 7567.02,9618.04 7556.39,9625.49C7545.77,9632.94 7538,9643.25 7533.08,9656.42C7528.17,9669.58 7525.71,9684.88 7525.71,9702.33C7525.71,9719.45 7527.61,9735.39 7531.42,9750.14C7535.22,9764.89 7542.52,9776.86 7553.3,9786.06C7564.09,9795.26 7579.79,9799.86 7600.4,9799.86ZM7411.05,9544.38L7411.05,9506.79L7449.11,9506.79L7449.11,9544.38L7411.05,9544.38ZM7901.08,9694.68L7901.08,9666.64C7901.08,9648.25 7895.69,9634.77 7884.9,9626.2C7874.12,9617.64 7858.74,9613.36 7838.76,9613.36C7826.07,9613.36 7812.67,9615.18 7798.56,9618.83C7784.44,9622.48 7772.31,9628.27 7762.16,9636.2L7762.16,9601.94C7771.99,9595.6 7785.15,9590.76 7801.65,9587.43C7818.14,9584.1 7834.16,9582.43 7849.7,9582.43C7860.16,9582.43 7869.84,9583.47 7878.72,9585.53C7887.6,9587.59 7895.53,9590.6 7902.51,9594.57C7909.49,9598.53 7915.43,9603.61 7920.35,9609.79C7925.27,9615.98 7929.07,9623.11 7931.77,9631.2C7934.46,9639.29 7935.81,9648.41 7935.81,9658.56L7935.81,9773.69C7935.81,9790.5 7930.82,9803.03 7920.82,9811.27C7910.83,9819.52 7897.83,9824.91 7881.81,9827.45C7865.8,9829.99 7848.59,9831.26 7830.19,9831.26C7819.73,9831.26 7809.18,9830.15 7798.56,9827.93C7787.93,9825.71 7778.1,9821.9 7769.06,9816.51C7760.02,9811.12 7752.72,9803.74 7747.17,9794.39C7741.62,9785.03 7738.85,9773.21 7738.85,9758.94C7738.85,9739.28 7742.57,9723.5 7750.03,9711.6C7757.48,9699.71 7767.79,9691.15 7780.95,9685.91C7794.11,9680.68 7809.26,9678.06 7826.39,9678.06C7839.39,9678.06 7850.65,9678.85 7860.16,9680.44C7869.68,9682.03 7878.16,9684.33 7885.62,9687.34C7890.66,9689.38 7896.69,9692.28 7901.08,9694.68Z" style="fill:white;"/>
                </g>
                <g transform="matrix(1.51961,0,0,1.49927,6187.41,8776.95)">
                    <path d="M928.14,243.638C926.485,246.262 926.638,249.657 928.522,252.118C928.522,252.118 967.814,303.689 1041.62,314.438C1090.06,321.492 1153.66,311.073 1230.8,255.666C1233.86,253.461 1234.77,249.247 1232.87,245.952C1232.87,245.952 1207.51,201.79 1166.47,168.958C1138.41,146.506 1103.13,129.48 1063.74,134.216C1022.23,139.207 975.536,168.499 928.14,243.638ZM943.316,246.976C986.29,180.536 1027.75,153.373 1065.45,148.84C1100.79,144.591 1132.29,160.37 1157.47,180.517C1187.57,204.598 1208.76,235.113 1216.78,247.621C1146.37,296.577 1088.31,306.36 1043.69,299.861C987.985,291.749 953.655,258.428 943.316,246.976L943.316,246.976Z" style="fill:white;"/>
                </g>
                <g transform="matrix(1.19574,0,0,1.17973,6179.05,8525)">
                    <path d="M1112.38,587.178C1112.38,587.178 1246.68,511.891 1293.5,485.644C1300.36,481.796 1308.74,482.02 1315.4,486.228C1315.4,486.228 1412.97,547.939 1412.97,547.939C1415.61,549.609 1418.9,549.818 1421.73,548.495L1498.78,512.399C1503.41,510.233 1505.43,504.667 1503.29,499.979C1501.15,495.291 1495.66,493.243 1491.04,495.41L1418.51,529.384C1418.51,529.384 1325.17,470.35 1325.17,470.35C1312.83,462.545 1297.29,462.13 1284.56,469.266C1237.74,495.513 1103.45,570.8 1103.45,570.8C1098.99,573.3 1097.37,578.999 1099.84,583.518C1102.3,588.038 1107.93,589.678 1112.38,587.178Z" style="fill:white;"/>
                </g>
                <path d="M7805.02,9078.56C7804.99,9078 7804.97,9077.44 7804.97,9076.88C7804.97,9062.94 7816.43,9051.63 7830.55,9051.63C7844.67,9051.63 7856.14,9062.94 7856.14,9076.88C7856.14,9087.8 7849.09,9097.11 7839.24,9100.62L7805.02,9078.56Z" style="fill:white;stroke:black;stroke-opacity:0;stroke-width:25.25px;"/>
            </g>
        </g>
    </g>
</svg>
